# xmcd
#
# Track frame offsets:
#	150
#	11860
#	24517
#	39255
#	52375
#	71822
#	83800
#	98752
#	111602
#	124052
#	138517
#	154552
#	166215
#	178082
#	192637
#	203902
#	217225
#	230102
#	241672
#	252727
#	262245
#	278910
#	292187
#	304625
#	319800
#
# Disc length: 4424 seconds
#
# Revision: 2
# Processed by: cddbd v1.5.2PL0 Copyright (c) Steve Scherf et al.
# Submitted via: audiograbber 1.83.01
#
DISCID=8e114619
DTITLE=Various Artist - Country Evergreens  CD1 of 4
DYEAR=1900
DGENRE=Country
TTITLE0=Jonny Cash  - Ring of Fire
TTITLE1=Waylon Jennings - I'm a Ramblin Man
TTITLE2=Glenn Campbell - Rhinestone Cowboy
TTITLE3=Hank Williams - Jambalaya
TTITLE4=Kenny Rogers - Coward of the Country
TTITLE5=Dolly Parton - Jolene
TTITLE6=Alabama - Love in the first degree
TTITLE7=Bobby Bare - Detroit City
TTITLE8=Hank Snow - Hello Love
TTITLE9=Willie Nelson - Yesterday's Wine
TTITLE10=Billie Jo Spears - Blanket on the Ground
TTITLE11=Dave Dudley - Six Days on the Road
TTITLE12=Bobby Bare - 500 Miles away frome home
TTITLE13=Jerry Reed - Lord Mr. Ford
TTITLE14=Bobby Sykes - Fraulein
TTITLE15=Charley Pride - All I have to offer you is me
TTITLE16=Ronnie Mislap - I'd be a legend in my time
TTITLE17=Don Reno and Bobby Thompson - The wabash cannonball
TTITLE18=Don Gibson - Oh, lonesome me
TTITLE19=Anne Murray - Snowbird
TTITLE20=Crystal Gayle - The other side of me
TTITLE21=Gene  Martin - Roll along Kentucky Man
TTITLE22=Jim Reeves - Distant Drums
TTITLE23=The Cattlemen - Cool water
TTITLE24=Frank Saunders - Home on the Range
EXTD=
EXTT0=
EXTT1=
EXTT2=
EXTT3=
EXTT4=
EXTT5=
EXTT6=
EXTT7=
EXTT8=
EXTT9=
EXTT10=
EXTT11=
EXTT12=
EXTT13=
EXTT14=
EXTT15=
EXTT16=
EXTT17=
EXTT18=
EXTT19=
EXTT20=
EXTT21=
EXTT22=
EXTT23=
EXTT24=
PLAYORDER=
